<svg id="visual" viewBox="0 0 960 540" width="960" height="540" xmlns="http://www.w3.org/2000/svg" xmlns:xlink="http://www.w3.org/1999/xlink" version="1.1"><rect x="0" y="0" width="960" height="540" fill="#001220"></rect><path d="M0 358L22.8 365.2C45.7 372.3 91.3 386.7 137 384.7C182.7 382.7 228.3 364.3 274 360.5C319.7 356.7 365.3 367.3 411.2 376.5C457 385.7 503 393.3 548.8 386.2C594.7 379 640.3 357 686 347.3C731.7 337.7 777.3 340.3 823 339.2C868.7 338 914.3 333 937.2 330.5L960 328L960 541L937.2 541C914.3 541 868.7 541 823 541C777.3 541 731.7 541 686 541C640.3 541 594.7 541 548.8 541C503 541 457 541 411.2 541C365.3 541 319.7 541 274 541C228.3 541 182.7 541 137 541C91.3 541 45.7 541 22.8 541L0 541Z" fill="#fa7268"></path><path d="M0 419L22.8 412.7C45.7 406.3 91.3 393.7 137 393.2C182.7 392.7 228.3 404.3 274 407.3C319.7 410.3 365.3 404.7 411.2 406.3C457 408 503 417 548.8 414.3C594.7 411.7 640.3 397.3 686 392.3C731.7 387.3 777.3 391.7 823 393.8C868.7 396 914.3 396 937.2 396L960 396L960 541L937.2 541C914.3 541 868.7 541 823 541C777.3 541 731.7 541 686 541C640.3 541 594.7 541 548.8 541C503 541 457 541 411.2 541C365.3 541 319.7 541 274 541C228.3 541 182.7 541 137 541C91.3 541 45.7 541 22.8 541L0 541Z" fill="#ef5f67"></path><path d="M0 445L22.8 443.2C45.7 441.3 91.3 437.7 137 439C182.7 440.3 228.3 446.7 274 443.7C319.7 440.7 365.3 428.3 411.2 419.7C457 411 503 406 548.8 403C594.7 400 640.3 399 686 408.2C731.7 417.3 777.3 436.7 823 438.8C868.7 441 914.3 426 937.2 418.5L960 411L960 541L937.2 541C914.3 541 868.7 541 823 541C777.3 541 731.7 541 686 541C640.3 541 594.7 541 548.8 541C503 541 457 541 411.2 541C365.3 541 319.7 541 274 541C228.3 541 182.7 541 137 541C91.3 541 45.7 541 22.8 541L0 541Z" fill="#e34c67"></path><path d="M0 432L22.8 441C45.7 450 91.3 468 137 468C182.7 468 228.3 450 274 445C319.7 440 365.3 448 411.2 450.5C457 453 503 450 548.8 449C594.7 448 640.3 449 686 454.2C731.7 459.3 777.3 468.7 823 474.8C868.7 481 914.3 484 937.2 485.5L960 487L960 541L937.2 541C914.3 541 868.7 541 823 541C777.3 541 731.7 541 686 541C640.3 541 594.7 541 548.8 541C503 541 457 541 411.2 541C365.3 541 319.7 541 274 541C228.3 541 182.7 541 137 541C91.3 541 45.7 541 22.8 541L0 541Z" fill="#d53867"></path><path d="M0 473L22.8 473C45.7 473 91.3 473 137 479.8C182.7 486.7 228.3 500.3 274 501.8C319.7 503.3 365.3 492.7 411.2 489.7C457 486.7 503 491.3 548.8 493.3C594.7 495.3 640.3 494.7 686 497.7C731.7 500.7 777.3 507.3 823 505C868.7 502.7 914.3 491.3 937.2 485.7L960 480L960 541L937.2 541C914.3 541 868.7 541 823 541C777.3 541 731.7 541 686 541C640.3 541 594.7 541 548.8 541C503 541 457 541 411.2 541C365.3 541 319.7 541 274 541C228.3 541 182.7 541 137 541C91.3 541 45.7 541 22.8 541L0 541Z" fill="#c62368"></path></svg>